<?xml version="1.0" standalone="no"?><!DOCTYPE svg PUBLIC "-//W3C//DTD SVG 1.1//EN" "http://www.w3.org/Graphics/SVG/1.1/DTD/svg11.dtd"><svg t="1629602633303" class="icon" viewBox="0 0 1024 1024" version="1.1" xmlns="http://www.w3.org/2000/svg" p-id="3048" xmlns:xlink="http://www.w3.org/1999/xlink" width="200" height="200"><defs><style type="text/css"></style></defs><path d="M817.92 898.7136H221.9008c-71.3728 0-129.4848-58.0608-129.4848-129.4848V239.0528c0-71.3728 58.0608-129.4848 129.4848-129.4848h115.1488c22.8864 0 45.6192 7.3216 64.2048 20.6848l93.4912 54.6304c0.9728 0.5632 1.9456 1.2288 2.8672 1.8944a48.7424 48.7424 0 0 0 28.9792 9.6256h291.328c71.3728 0 129.4848 58.0608 129.4848 129.4848v43.7248c0 16.9472-13.7728 30.72-30.72 30.72s-30.72-13.7728-30.72-30.72v-43.7248c0-37.5296-30.5152-68.0448-68.0448-68.0448h-291.328c-22.8864 0-45.6192-7.3216-64.2048-20.6848L368.896 182.5792c-0.9728-0.5632-1.9456-1.2288-2.8672-1.8944a48.7424 48.7424 0 0 0-28.9792-9.6256H221.9008c-37.5296 0-68.0448 30.5152-68.0448 68.0448v530.176c0 37.5296 30.5152 68.0448 68.0448 68.0448h596.0192c37.5296 0 68.0448-30.5152 68.0448-68.0448v-205.6192c0-16.9472 13.7728-30.72 30.72-30.72s30.72 13.7728 30.72 30.72v205.6192c0 71.3728-58.112 129.4336-129.4848 129.4336z" fill="#474747" p-id="3049" data-spm-anchor-id="a313x.7781069.0.i14" class="selected"></path><path d="M352.2048 527.0528c1.9968 0 3.9936-0.2048 6.0416-0.6144l89.9072-17.9712a30.72512 30.72512 0 1 0-12.032-60.2624l-21.7088 4.352c26.4704-29.44 64.512-47.104 105.472-47.104a141.568 141.568 0 0 1 137.6768 107.4688 30.73536 30.73536 0 0 0 29.7984 23.296 30.7456 30.7456 0 0 0 29.8496-38.144 202.9056 202.9056 0 0 0-197.2736-154.112c-65.536 0-126.0032 31.488-163.7888 82.8928l-7.2704-17.1008a30.7712 30.7712 0 0 0-40.2944-16.2816c-15.616 6.6048-22.8864 24.6784-16.2816 40.2944l31.6416 74.496a30.6688 30.6688 0 0 0 28.2624 18.7904zM748.4416 657.0496l-30.7712-74.8544a30.7712 30.7712 0 0 0-34.0992-18.5344l-90.112 16.9472c-16.6912 3.1232-27.648 19.2-24.5248 35.84s19.2 27.648 35.84 24.5248l25.5488-4.8128c-26.5728 32.8704-66.9696 52.9408-110.3872 52.9408-65.7408 0-122.4192-44.544-137.8304-108.288a30.70464 30.70464 0 1 0-59.6992 14.4384c22.1184 91.4432 103.3728 155.2896 197.5808 155.2896 66.304 0 127.744-32.5632 165.4272-85.3504l6.2464 15.2064a30.68928 30.68928 0 0 0 40.0896 16.7424 30.70976 30.70976 0 0 0 16.6912-40.0896z" fill="#515151" p-id="3050" data-spm-anchor-id="a313x.7781069.0.i12" class=""></path></svg>